<svg xmlns="http://www.w3.org/2000/svg" viewBox="0 0 247 247">
  <!-- Green background -->
  <rect width="247" height="247" rx="40" fill="#1E3328"/>
  <!-- 3 bars from the actual МЕГАСТЕЙТ logo mark, cropped and scaled -->
  <g transform="translate(0, 40) scale(1, 0.8)" fill="white">
    <!-- Bar 1 (left, shortest) -->
    <path d="M97 138.7C97 85.7 96.9 82.8 95.3 83.7C93.2 84.9 76.1 91.3 60 96.9C53.7 99.1 46.6 101.6 44.3 102.4L40 103.9L40 149.3L40 194.7L68.5 194.7L97 194.7L97 138.7Z"/>
    <!-- Bar 2 (middle) -->
    <path d="M170.8 125.5C171 66.1 170.8 56.7 169.6 56.7C168.8 56.7 163.3 58.5 157.3 60.7C145.6 64.9 116.1 75.7 109.3 78.3C106.9 79.2 105 80.2 105 80.6C105 81 107.8 83.3 111.3 85.7C114.7 88.1 120.8 92.5 124.8 95.5L132 100.9L132 147.8L132 194.7L151.3 194.5L170.5 194.2L170.8 125.5Z"/>
    <!-- Bar 3 (right, tallest) -->
    <path d="M247.5 188C248.3 179.3 247.7 29.1 246.8 28.2C246.5 27.9 236.6 31.2 224.8 35.6C213.1 40 199 45.2 193.5 47.2C181 51.8 176 53.9 176 54.6C176 54.9 177.7 56.3 179.8 57.6C185.6 61.4 206.4 77 207.2 78.1C207.6 78.7 208 105.2 208 137L208 194.7L227.4 194.7L246.8 194.7L247.5 188Z"/>
  </g>
</svg>
